 <svg  version="1.0" xmlns="http://www.w3.org/2000/svg"  width="300.000000pt" height="168.000000pt" viewBox="0 0 300.000000 168.000000"  preserveAspectRatio="xMidYMid meet">  <g transform="translate(0.000000,168.000000) scale(0.100000,-0.100000)" fill="#8a64cc" stroke="none"> <path d="M1230 1163 c-67 -3 -88 -8 -102 -23 -10 -11 -18 -22 -18 -25 0 -4 -15 -24 -32 -45 l-33 -40 -230 0 -231 0 -43 -177 c-25 -98 -46 -185 -48 -193 -4 -13 27 -15 237 -12 174 2 246 0 256 -9 17 -14 19 -33 2 -23 -7 4 13 -20 45 -52 l57 -59 379 0 379 0 20 26 c11 14 40 38 63 55 l42 29 196 5 195 5 18 75 c20 77 36 100 73 100 19 0 26 14 53 115 18 64 32 120 32 125 0 6 -31 9 -72 8 l-73 -2 63 -3 c34 -2 62 -8 62 -14 0 -5 -12 -56 -26 -114 l-26 -104 -36 -3 c-32 -3 -37 -7 -45 -38 -4 -19 -15 -59 -23 -87 l-15 -53 -193 0 c-162 0 -196 -2 -206 -15 -7 -9 -27 -26 -44 -37 -29 -21 -29 -19 9 25 l40 46 192 -2 192 -2 23 93 22 92 37 0 37 0 20 83 c12 46 24 91 28 100 6 16 -16 17 -268 17 l-274 0 -37 38 c-21 21 -35 41 -32 43 3 3 -6 16 -20 29 -25 23 -27 24 -293 25 -147 1 -305 0 -352 -2z m7 -53 c3 -11 12 -20 19 -20 9 0 14 -11 14 -30 0 -20 -5 -30 -15 -30 -8 0 -15 -6 -15 -14 0 -8 -4 -17 -8 -20 -14 -8 -52 5 -52 19 0 7 -9 15 -20 18 -27 7 -25 27 8 65 31 36 61 42 69 12z m143 6 c0 -7 9 -16 20 -19 14 -3 20 -14 20 -32 0 -18 -6 -29 -20 -32 -11 -3 -20 -12 -20 -19 0 -9 -11 -14 -30 -14 -19 0 -30 5 -30 14 0 8 -7 16 -15 20 -22 8 -18 45 8 72 24 26 67 32 67 10z m116 -12 c-4 -9 -2 -22 3 -28 11 -13 -4 -66 -31 -106 -9 -14 -20 -38 -23 -55 -14 -65 -27 -95 -40 -95 -23 0 -25 15 -11 64 8 26 12 60 10 76 -4 20 1 36 14 51 23 24 34 69 21 85 -13 15 0 24 34 24 23 0 28 -4 23 -16z m334 -19 c0 -11 -28 -14 -155 -14 -123 1 -155 3 -155 14 0 11 32 14 155 14 127 0 155 -2 155 -14z m373 -75 c215 0 277 -3 277 -12 0 -7 -8 -44 -18 -83 -18 -69 -19 -70 -54 -73 -36 -3 -36 -3 -53 -75 -10 -40 -22 -80 -27 -89 -8 -17 -62 -18 -908 -18 l-900 0 0 23 c0 12 18 90 38 172 l38 150 263 5 c145 3 268 2 274 -2 7 -4 -108 -8 -255 -8 l-267 0 -10 -37 c-5 -21 -22 -85 -36 -143 -14 -58 -28 -113 -31 -122 -5 -17 42 -18 888 -18 l894 0 23 90 24 90 36 0 c36 0 37 1 50 56 7 31 15 63 18 71 5 11 -41 13 -291 13 -162 -1 -301 2 -308 6 -21 13 -51 12 -95 -5 -41 -14 -43 -14 -57 4 -20 28 -11 35 46 35 35 0 57 6 76 21 l27 21 30 -36 30 -36 278 0z m-526 3 c3 -9 -17 -12 -73 -12 -81 1 -98 4 -89 19 9 14 158 7 162 -7z m-413 -38 c-9 -14 -13 -25 -8 -25 4 0 3 -5 -4 -12 -7 -7 -12 -22 -12 -34 0 -40 -21 -84 -41 -84 -21 0 -23 13 -10 56 5 16 12 41 15 55 3 15 20 36 38 48 42 26 42 26 22 -4z m620 -9 c18 -7 42 -26 54 -41 22 -28 27 -25 34 20 3 19 12 20 223 22 120 2 222 0 226 -5 3 -4 2 -22 -3 -39 -8 -30 -12 -33 -46 -33 l-38 0 -18 -72 c-10 -40 -20 -81 -23 -90 -3 -13 -15 -18 -44 -18 -21 0 -39 3 -39 8 0 4 9 43 20 86 11 44 18 81 16 83 -2 2 -49 5 -105 6 -75 1 -101 -1 -101 -10 0 -9 18 -13 59 -13 78 0 83 -8 63 -93 l-16 -67 -108 0 -108 0 6 27 7 28 -31 -27 c-76 -64 -184 -39 -213 49 -11 34 -13 36 -20 15 -8 -20 -15 -22 -78 -22 -72 0 -81 -6 -81 -50 0 -22 -13 -28 -52 -22 -26 4 -28 6 -22 43 4 22 16 78 28 127 l21 87 114 3 114 3 -7 -32 c-6 -31 -6 -31 12 -10 22 26 70 51 100 51 12 0 37 -6 56 -14z m-953 -2 c3 -2 -1 -32 -11 -66 -34 -127 -35 -118 3 -118 l34 0 24 93 24 92 83 2 c95 3 92 8 62 -99 -11 -40 -20 -76 -20 -79 0 -4 26 -9 59 -11 l59 -3 17 80 c23 106 28 115 70 115 42 0 43 -7 15 -108 -11 -39 -20 -74 -20 -77 0 -3 25 -5 55 -5 57 0 61 -3 49 -47 -6 -23 -7 -23 -206 -23 -185 0 -199 1 -194 18 3 9 14 55 26 102 12 47 24 94 27 105 3 11 2 17 -2 13 -3 -3 -16 -42 -26 -85 -11 -43 -25 -95 -30 -115 l-10 -38 -115 0 c-105 0 -115 2 -110 18 4 12 46 165 46 167 0 0 -33 -1 -72 -2 -91 -2 -107 -23 -18 -23 l63 0 -7 -32 c-8 -43 -22 -50 -83 -43 -51 6 -52 6 -59 -22 -14 -63 -14 -63 -55 -63 -21 0 -39 2 -39 5 0 3 14 62 31 130 l32 125 145 -1 c81 0 149 -2 153 -5z m-169 -229 c-5 -27 -5 -27 -45 -23 -31 3 -34 5 -26 26 7 19 15 23 41 20 27 -2 32 -7 30 -23z m931 -3 c9 -8 17 -18 17 -22 0 -5 -35 -7 -77 -6 -62 1 -78 4 -78 16 0 10 14 17 40 21 61 8 78 7 98 -9z m-585 -129 c4 -40 -6 -41 -41 -5 -30 31 -26 44 13 40 20 -2 26 -9 28 -35z m72 25 c0 -9 3 -10 8 -2 4 6 21 11 39 12 l31 1 -18 -42 c-20 -44 -49 -62 -51 -30 -1 16 -2 17 -6 1 -2 -10 -14 -18 -25 -18 -14 0 -18 5 -14 16 3 9 6 29 6 45 0 19 5 29 15 29 8 0 15 -6 15 -12z m170 2 c0 -5 -9 -10 -20 -10 -25 0 -26 -17 -2 -23 14 -3 13 -6 -8 -15 -18 -8 -20 -11 -7 -11 31 -1 18 -21 -14 -21 -31 0 -31 1 -24 37 4 21 9 41 11 45 7 12 64 10 64 -2z m94 -27 c-9 -52 -10 -53 -51 -53 -29 0 -34 3 -28 18 3 9 9 29 12 45 5 23 10 27 40 27 34 0 34 0 27 -37z m113 25 c-2 -7 -15 -12 -28 -11 l-24 3 23 -18 c33 -25 20 -52 -25 -52 -23 0 -33 4 -30 13 2 6 15 11 28 10 l24 -3 -23 18 c-33 25 -20 52 25 52 23 0 33 -4 30 -12z m67 -15 c-12 -50 -23 -73 -35 -73 -8 0 -9 13 -5 42 8 49 13 58 32 58 11 0 13 -7 8 -27z m106 18 c0 -5 -5 -11 -11 -13 -7 -2 -17 -19 -23 -37 -15 -46 -31 -39 -31 14 -1 44 0 45 32 45 18 0 33 -4 33 -9z m90 -1 c0 -5 -7 -10 -15 -10 -8 0 -15 -4 -15 -10 0 -5 5 -10 10 -10 18 0 11 -20 -7 -21 -17 -1 -17 -2 0 -6 26 -7 10 -23 -24 -23 -24 0 -29 4 -25 18 3 9 8 29 12 45 5 22 12 27 35 27 16 0 29 -4 29 -10z m70 0 c0 -4 -9 -15 -20 -25 -19 -18 -20 -17 -20 2 0 11 2 22 5 25 7 7 35 6 35 -2z"/> <path d="M1198 1080 c-14 -15 -13 -20 3 -41 11 -14 19 -18 19 -10 0 8 6 19 14 25 11 9 10 14 -4 27 -16 15 -19 15 -32 -1z"/> <path d="M1338 1080 c-13 -15 -13 -19 4 -39 10 -13 18 -18 18 -11 0 7 6 18 14 24 11 9 10 14 -4 27 -16 15 -19 15 -32 -1z"/> <path d="M1772 930 c-38 -24 -65 -79 -56 -116 4 -13 20 -38 36 -54 68 -68 187 -12 188 89 0 25 -9 42 -34 67 -40 40 -83 45 -134 14z m82 -6 c20 -8 21 -38 2 -53 -11 -9 -20 -10 -35 -1 -24 12 -27 30 -9 48 14 14 20 14 42 6z m-59 -84 c0 -18 -6 -26 -23 -28 -13 -2 -25 3 -28 12 -10 26 4 48 28 44 17 -2 23 -10 23 -28z m123 -1 c4 -30 -22 -46 -44 -28 -17 14 -18 31 -2 47 19 19 43 9 46 -19z m-60 -56 c-4 -22 -32 -38 -52 -30 -21 8 -21 43 1 56 22 12 55 -5 51 -26z"/> <path d="M1511 908 c-14 -45 -41 -157 -41 -170 0 -22 25 1 30 28 5 28 7 29 79 34 l74 5 12 42 c7 23 15 53 19 67 l6 26 -84 0 -84 0 -11 -32z m141 7 c8 -8 -15 -84 -26 -88 -6 -2 -33 -2 -59 1 l-49 4 7 37 c4 19 9 39 11 43 6 9 108 11 116 3z"/> <path d="M1557 883 c-19 -18 -6 -34 25 -31 44 4 53 38 10 38 -16 0 -32 -3 -35 -7z"/> <path d="M1986 889 c-9 -28 -13 -55 -10 -60 3 -5 36 -9 75 -9 38 0 69 -2 69 -4 0 -3 -4 -16 -10 -30 -9 -24 -14 -26 -74 -26 -48 0 -65 -4 -70 -15 -5 -14 6 -15 76 -13 l82 3 12 49 c7 28 11 53 8 58 -3 4 -34 8 -70 8 l-65 0 3 33 3 32 73 3 c98 4 92 22 -8 22 l-79 0 -15 -51z"/> <path d="M2220 930 c0 -5 13 -10 28 -10 16 0 31 -2 34 -5 3 -3 -3 -34 -12 -68 -31 -113 -31 -117 -16 -117 9 0 21 31 35 95 l22 95 40 0 c21 0 39 5 39 10 0 6 -35 10 -85 10 -50 0 -85 -4 -85 -10z"/> <path d="M1955 793 c-3 -10 14 -13 65 -13 39 0 70 4 70 9 0 15 -129 18 -135 4z"/> <path d="M884 939 c-10 -13 -54 -175 -54 -199 0 -6 33 -10 85 -10 l84 0 10 38 c33 128 42 165 37 169 -10 10 -24 -7 -30 -37 -3 -17 -13 -55 -22 -85 l-15 -55 -60 0 c-32 0 -59 3 -59 6 0 3 9 42 20 86 21 82 23 111 4 87z"/> <path d="M631 848 c-13 -51 -26 -99 -28 -105 -3 -7 1 -13 10 -13 9 0 18 16 23 43 l9 42 68 3 c52 2 67 6 67 18 0 13 -9 14 -54 9 -61 -8 -69 -2 -60 44 l7 31 73 0 c43 0 74 4 74 10 0 6 -34 10 -83 10 l-82 0 -24 -92z"/> <path d="M1091 853 c-12 -49 -24 -96 -27 -105 -5 -16 3 -18 70 -18 61 0 76 3 76 15 0 12 -13 15 -55 15 -37 0 -55 4 -55 13 0 6 9 46 20 87 11 41 20 76 20 78 0 1 -6 2 -14 2 -9 0 -21 -30 -35 -87z"/> <path d="M1315 928 c-3 -7 -16 -55 -29 -105 l-25 -93 75 0 c59 0 74 3 74 15 0 12 -13 15 -55 15 -30 0 -55 3 -55 8 0 8 28 130 36 155 6 19 -14 24 -21 5z"/> <path d="M566 1042 c-2 -4 -21 -71 -40 -147 -19 -77 -44 -171 -55 -208 -16 -55 -17 -69 -7 -73 8 -3 125 -1 262 4 l249 9 -254 1 c-198 2 -252 5 -248 15 2 6 26 98 52 204 l48 192 86 4 86 3 -87 2 c-48 1 -89 -2 -92 -6z"/> </g> </svg> 